PathFileType	4	(X/Y/Z)	./resultDataOpenSim/trcMotMarkerGrf/sub06/qtm-12-01.trc
DataRate	CameraRate	NumFrames	NumMarkers	Units	OrigDataRate	OrigDataStartFrame	OrigNumFrames
250.000000	250.000000	9	24	m	250.000000	307	490
Frame#	Time	L.Toe.Tip			R.Toe.Tip			L.Ankle.Lat			R.Ankle.Lat			L.Ankle.Med			R.Ankle.Med			L.Heel			R.Heel			L.Knee.Lat			R.Knee.Lat			L.Knee.Med			R.Knee.Med			L.Thigh.Upper			R.Thigh.Upper			L.ASIS			R.ASIS			V.Sacral			L.Acromium			R.Acromium			C7			L.Elbow			R.Elbow			L.Wrist.Lat			R.Wrist.Lat
		X1	Y1	Z1	X2	Y2	Z2	X3	Y3	Z3	X4	Y4	Z4	X5	Y5	Z5	X6	Y6	Z6	X7	Y7	Z7	X8	Y8	Z8	X9	Y9	Z9	X10	Y10	Z10	X11	Y11	Z11	X12	Y12	Z12	X13	Y13	Z13	X14	Y14	Z14	X15	Y15	Z15	X16	Y16	Z16	X17	Y17	Z17	X18	Y18	Z18	X19	Y19	Z19	X20	Y20	Z20	X21	Y21	Z21	X22	Y22	Z22	X23	Y23	Z23	X24	Y24	Z24

307	1.224	0.38064427	0.098358551	-0.098978225	0.93641169	0.034808636	0.039013588	0.37525093	0.22868312	-0.11139019	0.8000861	0.060993874	0.070595621	0.40743441	0.22512851	-0.032015144	0.81611998	0.080730233	-0.017179579	0.33548336	0.27887995	-0.048813449	0.741887	0.040481868	0.015865061	0.71292659	0.38547948	-0.17571471	0.88388701	0.43792162	0.10368049	0.72669433	0.37563768	-0.052087453	0.83599578	0.42941759	-0.016617517	0.67132046	0.77671044	-0.15190902	0.76317494	0.79196719	0.18139241	0.75700213	0.83145925	-0.13126151	0.82512504	0.84781184	0.10460229	0.60809394	0.90656655	0.042206066	0.70121306	1.3347657	-0.15267241	0.73475697	1.2878672	0.2039122	0.63626828	1.3479656	0.03478828	0.74065326	1.0155207	-0.22551588	0.64423322	0.98309403	0.25867154	0.99088644	0.95896455	-0.18167259	0.76262061	0.7795985	0.31420869
308	1.228	0.39497213	0.10039075	-0.10031596	0.93638801	0.034798092	0.039036376	0.38851982	0.23064922	-0.11232116	0.80009925	0.061090401	0.070669927	0.42055045	0.22708552	-0.032895818	0.81611704	0.080934278	-0.0170697	0.34806645	0.28047532	-0.049634238	0.74189127	0.040697499	0.015875736	0.72529173	0.38792569	-0.17639042	0.88550764	0.43800979	0.10393316	0.73931947	0.37789726	-0.052664606	0.83688396	0.43005765	-0.016174214	0.67794039	0.77900283	-0.15169564	0.7678318	0.79299503	0.18187198	0.76307332	0.83387398	-0.13112293	0.83074549	0.8493494	0.10550058	0.6140282	0.90845167	0.042391163	0.70633264	1.3368069	-0.15256433	0.74038805	1.2899192	0.20406375	0.641954	1.3499052	0.035073261	0.74140967	1.0178928	-0.22412005	0.65307764	0.98374756	0.25901192	0.99269892	0.95520513	-0.18377089	0.77688406	0.78266527	0.31270157
309	1.232	0.40950688	0.10215965	-0.10157061	0.93636099	0.034787212	0.03905616	0.40184072	0.23233528	-0.1132752	0.80010016	0.061198561	0.070758194	0.43372598	0.22883424	-0.033798884	0.8161075	0.081159757	-0.016942981	0.36061737	0.28175765	-0.050526988	0.74188377	0.04093407	0.015910705	0.73762882	0.39050304	-0.17696799	0.88697077	0.43821844	0.10418456	0.7518515	0.38027791	-0.053135948	0.83779382	0.43075193	-0.015810165	0.68455924	0.78130552	-0.15152558	0.77227225	0.79408697	0.18229006	0.76923222	0.83628533	-0.13094104	0.83627553	0.85092284	0.10643833	0.61984756	0.91035064	0.042497933	0.71142857	1.3388801	-0.15245776	0.745981	1.2920295	0.20422302	0.64762437	1.3518552	0.035348587	0.74242077	1.0201674	-0.22316358	0.66199228	0.98455393	0.25940172	0.99429852	0.95151506	-0.18593691	0.7911061	0.78602389	0.31112009
310	1.236	0.42427222	0.1036841	-0.10280314	0.93633785	0.034776959	0.039067327	0.41520141	0.23375177	-0.11424713	0.80008418	0.061328173	0.070858485	0.44695746	0.2303804	-0.034728121	0.81609931	0.081404264	-0.016806967	0.37314018	0.28272393	-0.051530705	0.74187227	0.041191997	0.015956481	0.74993862	0.3931997	-0.17745911	0.88825954	0.43849262	0.1044344	0.76435035	0.38277809	-0.053527386	0.8386472	0.43147498	-0.015504814	0.69120212	0.783613	-0.1513638	0.77653367	0.79524305	0.18261123	0.77550168	0.83869637	-0.13072054	0.8417247	0.85253406	0.10740923	0.62557425	0.91225264	0.04250097	0.71650495	1.3409825	-0.15234144	0.751538	1.294189	0.2043836	0.65326466	1.3538098	0.035609681	0.74371614	1.022359	-0.22259097	0.67095648	0.98549314	0.25983489	0.99569199	0.94789963	-0.18816646	0.80527252	0.78966416	0.30947274
311	1.24	0.43929042	0.10497958	-0.10405776	0.93632321	0.034770305	0.039066507	0.42859515	0.2349082	-0.11523318	0.80003866	0.06147795	0.070979747	0.4602488	0.23172837	-0.035690434	0.81609606	0.081668487	-0.016663196	0.38565164	0.28337241	-0.052653416	0.74185239	0.04146941	0.016028554	0.76219757	0.39600482	-0.17787148	0.88940119	0.43879832	0.10471643	0.77681321	0.3853992	-0.053840852	0.83938668	0.43222248	-0.015239607	0.69788584	0.78592085	-0.1512045	0.7806561	0.79643624	0.18280808	0.78181664	0.84110333	-0.13048022	0.84711777	0.85419196	0.10841311	0.631303	0.91416699	0.042405239	0.7215777	1.3431051	-0.15221298	0.75706352	1.2963933	0.2045439	0.65885514	1.3557597	0.035854117	0.74533096	1.0244763	-0.22236476	0.67987567	0.98652178	0.26026386	0.99688515	0.94436481	-0.19045508	0.81936426	0.79357442	0.30776227
312	1.244	0.45456192	0.10605683	-0.10533611	0.9363188	0.034768504	0.039055528	0.44203209	0.23580336	-0.11623032	0.79995362	0.061640422	0.071133268	0.47360169	0.23287894	-0.036682858	0.81609891	0.081958234	-0.016506248	0.39816289	0.28369094	-0.053840349	0.74181537	0.041766743	0.016154686	0.77437192	0.39891545	-0.1782191	0.89036946	0.43912048	0.10505485	0.78921247	0.38814194	-0.054067663	0.84003496	0.43298635	-0.01500941	0.70461162	0.78822143	-0.15107137	0.78475793	0.79765303	0.18290181	0.78809781	0.84348592	-0.13022697	0.85248317	0.85590566	0.10945251	0.6371894	0.9161121	0.042286003	0.72666992	1.3452351	-0.15207293	0.7625661	1.2986399	0.20470847	0.66439164	1.3576958	0.036082339	0.74730185	1.0265257	-0.22245439	0.6886839	0.98760531	0.2606476	0.99788321	0.94091735	-0.1927981	0.83336253	0.7977452	0.30599124
313	1.248	0.47005888	0.10692466	-0.1066112	0.93632366	0.034769578	0.039040877	0.45553443	0.23643146	-0.11723942	0.7998552	0.061814255	0.07131146	0.48701075	0.23382924	-0.037689549	0.81610736	0.082285839	-0.016327358	0.4106775	0.28367036	-0.055021824	0.7417681	0.04208917	0.016334246	0.78642922	0.40192901	-0.17852206	0.89106001	0.43945446	0.10542885	0.80152607	0.39100335	-0.054203203	0.84069658	0.43374591	-0.014829373	0.71137537	0.7905057	-0.15097883	0.78902931	0.79891447	0.18296795	0.79429638	0.84581031	-0.12991171	0.85783417	0.85767015	0.11052302	0.64333986	0.91808456	0.042265077	0.73179434	1.347361	-0.15191859	0.76805255	1.3009225	0.20488025	0.66988781	1.3596118	0.03629942	0.74966618	1.0285138	-0.22282991	0.69737473	0.98873349	0.26097597	0.99869138	0.93756434	-0.19519063	0.84724807	0.80216676	0.30416427
314	1.252	0.48575142	0.10759336	-0.10785738	0.93633361	0.034770502	0.039030057	0.46912432	0.23679351	-0.11826966	0.79980151	0.0620091	0.071488031	0.50046287	0.23457042	-0.038692563	0.81612077	0.082663696	-0.01612146	0.42319671	0.28331341	-0.056173687	0.74173581	0.042443135	0.016528081	0.79837469	0.40502693	-0.17878545	0.89144151	0.43979924	0.10580771	0.81374486	0.39397656	-0.054251778	0.84146913	0.43448334	-0.014713661	0.71817535	0.7927674	-0.15092216	0.79358945	0.80025332	0.18311541	0.8003697	0.84806901	-0.12940073	0.86314841	0.85945317	0.11159989	0.64965122	0.9200456	0.0423942	0.73694948	1.3494723	-0.15174583	0.77352513	1.3032296	0.20505704	0.67535822	1.3615	0.0365097	0.75246699	1.0304472	-0.2234618	0.70596675	0.98991199	0.26125845	0.99931634	0.93431126	-0.19762771	0.86100632	0.80682934	0.30228593
315	1.256	0.50163465	0.10807546	-0.10907364	0.93634168	0.034770378	0.039027462	0.48281633	0.23689785	-0.11933286	0.7998202	0.062237499	0.07164973	0.51394204	0.23508704	-0.039682533	0.81614098	0.083093574	-0.015890179	0.43572089	0.28262231	-0.057313674	0.74173583	0.042831512	0.016703683	0.81026757	0.40817651	-0.17898824	0.89164449	0.44015168	0.10619522	0.82585641	0.39705437	-0.054220304	0.84235422	0.43519511	-0.01464792	0.72501507	0.79500681	-0.15089505	0.79832214	0.80166807	0.18344255	0.8062871	0.85032761	-0.12855527	0.86838875	0.86121532	0.11264764	0.65582255	0.92195133	0.042579084	0.74213535	1.3515585	-0.15155743	0.7789854	1.305551	0.20523616	0.68080536	1.3633536	0.036709892	0.75576104	1.0323329	-0.22432347	0.71447655	0.99114947	0.26150832	0.99976878	0.93115817	-0.20010488	0.87463651	0.81172482	0.30036024
